<?xml version="1.0" encoding="UTF-8"?>
<svg width="752pt" height="752pt" version="1.1" viewBox="0 0 752 752" xmlns="http://www.w3.org/2000/svg">
 <path d="m272.26 534.91c6.4805-26.625 34.734-53.156 33.32-90.457-0.40234-10.516-1.5586-13.609-10.172-15.793-4.7812-1.2109-59.289 0.94922-85.172-4.6719-8.1953-1.7812-10.367-4.9883-14.383-9.0039-17.656-17.703-13.656-83.406-12.398-108.17 1.3516-26.438-2.4609-51.145 12.66-82.465 12.574-26.055 36.348-30.875 64.727-32.059l71.578-0.51172c8.0469-0.074219 14.012-1.7812 22.598-2.1523 13.547-0.59766 31.07-0.29688 45.27-0.57812 15.531-0.30859 31.734-2.332 46.648 0.34375 66.133 11.859 97.176-12.707 121.05 27.574 22.039 37.188 5.1289 81.844 3.2461 131.94-1.7266 45.941 7.3008 68.102-24.547 72.176-14.367 1.8477-28.535 5.9648-40.328 7.0742-14.992 1.418-30.848 0.11328-44.543 2.3945-29.879 4.9883-57.848-0.25-84.852 11.289-44.516 19.008-30.559 19.176-52.496 46.109zm14.105-92.152c-0.039063 44.273-36.75 96.758-48.543 124.86-4.7188 11.262-8.0078 4.2617-7.0391 17.18 12.695 3.7578 37.605-23.027 42.277-29.582 2.8789-4.0352 36.023-28.668 62.965-62.879 24.293-30.848 19.02-31.668 58.406-40.125l65.156-7.9609c9.6758-0.14062 11.281 1.7344 21.328 0.89453l66.375-5.5938c12.957-1.6406 9.2109 0.55859 17.023-7.8047 9.2188-9.8711 18.215-12.773 18.625-32.031 0.31641-15.215-1.1641-33.047 0.066406-48.531 2.1445-27.062 9.1094-67.457 7.7109-93.758l-4.4766-44.852c-4.2305-23.41-5.5664-17.656-23.941-25.934-37-16.668-100.3-11.914-136.31-13.602l-185.7 8.3711-38.176 11.422c-18.262 7.3281-11.012 12.754-19.41 29.215-3.0859 6.0391-9.2188 34.055-9.8633 41.738l-2.0586 96.051c3.7852 19.418 1.5195 61.117 26.27 72.547 27.801 12.836 58.676 3.2266 89.309 10.367z" fill="#9b9b9b" fill-rule="evenodd"/>
</svg>
